<svg aria-hidden="true" style="position: absolute; width: 0; height: 0; overflow: hidden;" version="1.1" xmlns="http://www.w3.org/2000/svg" xmlns:xlink="http://www.w3.org/1999/xlink">
<defs>
<symbol id="icon-Logo" viewBox="0 0 154 32">
<path d="M154.209 23.896v3.822h-3.207c-3.422-0.107-5.25-1.955-5.25-5.426v-8.732h-2.239v-3.354h2.239v-3.753h4.732v3.715h3.618v3.343h-3.618v8.311c0 1.126 0.225 2.024 1.955 2.024l1.77 0.050zM124.651 18.998v-0.254c-0.006-0.115-0.009-0.251-0.009-0.387 0-3.415 1.999-6.363 4.892-7.737l0.052-0.022c0.951-0.454 2.061-0.74 3.232-0.792l0.018-0.001h0.684c4.468 0 8.388 2.601 8.388 8.8v1.32h-12.417c0.127 2.856 1.672 4.469 4.273 4.469 2.239 0 3.285-0.978 3.588-2.406h4.469c-0.548 3.725-3.52 5.798-8.223 5.798-5.163-0.039-8.947-3.304-8.947-8.789zM137.255 16.935c-0.167-2.601-1.476-3.852-3.755-3.852s-3.588 1.408-3.911 3.851h7.666zM105.332 18.998v-0.254c-0.006-0.117-0.009-0.255-0.009-0.394 0-4.59 3.616-8.336 8.155-8.544l0.019-0.001h0.684c4.469 0 8.399 2.601 8.399 8.8v1.32h-12.408c0.127 2.856 1.673 4.469 4.274 4.469 2.239 0 3.285-0.978 3.587-2.406h4.469c-0.557 3.725-3.53 5.798-8.233 5.798-5.153-0.039-8.937-3.304-8.937-8.789zM117.935 16.935c-0.167-2.601-1.476-3.852-3.755-3.852-2.278 0-3.549 1.447-3.911 3.842l7.666 0.010zM78.22 10.168h5.005l3.061 11.596 3.354-11.596h3.91l3.031 11.596 3.226-11.596h4.586l-5.437 17.228h-4.693l-2.933-10.814-3.138 10.814h-4.753l-5.22-17.228zM62.311 21.98h4.469c0.204 1.555 0.977 2.444 3.030 2.444 1.838 0 2.689-0.694 2.689-1.877s-0.978-1.682-3.481-2.034c-4.585-0.695-6.356-2.014-6.356-5.378 0-3.588 3.286-5.367 6.845-5.367 3.823 0 6.708 1.388 7.117 5.348h-4.408c-0.113-1.19-1.108-2.114-2.318-2.114-0.082 0-0.164 0.004-0.244 0.013l0.010-0.001h-0.147c-1.545 0-2.444 0.723-2.444 1.779s0.831 1.516 3.354 1.877c4.281 0.646 6.677 1.731 6.677 5.418 0 3.686-2.708 5.661-7.245 5.661-4.536 0-7.421-2.044-7.548-5.769zM43.324 10.168h4.732v2.728c1.018-1.882 2.977-3.139 5.229-3.139 0.125 0 0.248 0.004 0.371 0.011l-0.017-0.001c3.354 0 5.788 2.044 5.788 6.707v10.961h-4.673v-10.275c0-2.337-0.909-3.452-3.021-3.452-0.088-0.008-0.191-0.013-0.295-0.013-1.78 0-3.241 1.368-3.39 3.11l-0.001 0.013c-0.012 0.094-0.018 0.203-0.018 0.313s0.007 0.219 0.020 0.326l-0.001-0.013v9.953h-4.723v-17.228zM34.191 5.837c-0.001-0.026-0.002-0.056-0.002-0.087 0-1.318 1.068-2.386 2.386-2.386s2.386 1.068 2.386 2.386c0 1.289-1.023 2.34-2.302 2.384l-0.004 0h-0.088c-0.042 0.003-0.091 0.004-0.141 0.004-1.184 0-2.153-0.924-2.225-2.090l-0-0.006c-0.007-0.054-0.011-0.116-0.011-0.179 0-0.009 0-0.018 0-0.027l-0 0.001zM34.191 10.168h4.781v17.228h-4.762l-0.019-17.228zM16.172 3.852h15.116v4.175h-9.777v6.228h7.743v4.019h-7.754v9.122h-5.329v-23.545zM7.050 11.556c0 1.476 0 3.276-2.034 4.009 2.082 0.714 2.034 2.229 2.034 3.814v5.866c0 1.114 0.449 1.79 1.251 1.956 0.177 0.058 0.362 0.086 0.547 0.077h1.955v3.912h-3.226c-3.442 0-5.338-1.955-5.338-5.583v-6.941c-0.052-0.737-0.655-1.317-1.397-1.331l-0.001-0h-0.841v-3.432h0.841c0.758-0.010 1.371-0.613 1.398-1.366l0-0.002v-7.040c0.001-3.569 1.858-5.495 5.338-5.495h3.255v3.852h-1.953c-0.186 0-0.371 0.031-0.548 0.088-0.801 0.205-1.251 0.87-1.251 1.955l-0.029 5.661z"></path>
</symbol>
<symbol id="icon-business" viewBox="0 0 32 32">
<path fill="#232536" style="fill: var(--color1, #232536)" d="M16.687 9.276l-7.327-1.113c-0.34-0.053-0.687 0.040-0.947 0.26-0.26 0.227-0.413 0.553-0.413 0.893v14.047c0 0.367 0.3 0.667 0.667 0.667h2.167v-3.5c0-0.647 0.52-1.167 1.167-1.167h1.667c0.647 0 1.167 0.52 1.167 1.167v3.5h2.833v-13.6c-0.001-0.579-0.421-1.059-0.974-1.153l-0.007-0.001zM11.667 17.863h-1c-0.276 0-0.5-0.224-0.5-0.5s0.224-0.5 0.5-0.5v0h1c0.276 0 0.5 0.224 0.5 0.5s-0.224 0.5-0.5 0.5v0zM11.667 15.863h-1c-0.276 0-0.5-0.224-0.5-0.5s0.224-0.5 0.5-0.5v0h1c0.276 0 0.5 0.224 0.5 0.5s-0.224 0.5-0.5 0.5v0zM11.667 13.863h-1c-0.276 0-0.5-0.224-0.5-0.5s0.224-0.5 0.5-0.5v0h1c0.276 0 0.5 0.224 0.5 0.5s-0.224 0.5-0.5 0.5v0zM11.667 11.863h-1c-0.276 0-0.5-0.224-0.5-0.5s0.224-0.5 0.5-0.5v0h1c0.276 0 0.5 0.224 0.5 0.5s-0.224 0.5-0.5 0.5v0zM15 17.863h-1c-0.276 0-0.5-0.224-0.5-0.5s0.224-0.5 0.5-0.5v0h1c0.276 0 0.5 0.224 0.5 0.5s-0.224 0.5-0.5 0.5v0zM15 15.863h-1c-0.276 0-0.5-0.224-0.5-0.5s0.224-0.5 0.5-0.5v0h1c0.276 0 0.5 0.224 0.5 0.5s-0.224 0.5-0.5 0.5v0zM15 13.863h-1c-0.276 0-0.5-0.224-0.5-0.5s0.224-0.5 0.5-0.5v0h1c0.276 0 0.5 0.224 0.5 0.5s-0.224 0.5-0.5 0.5v0zM15 11.863h-1c-0.276 0-0.5-0.224-0.5-0.5s0.224-0.5 0.5-0.5v0h1c0.276 0 0.5 0.224 0.5 0.5s-0.224 0.5-0.5 0.5v0z"></path>
<path fill="#ffd050" style="fill: var(--color2, #ffd050)" d="M23.080 15.258l-4.747-0.994v9.766h4.5c0.643 0 1.167-0.523 1.167-1.167v-6.465c0-0.551-0.375-1.020-0.92-1.14zM21.5 22.030h-1c-0.276 0-0.5-0.224-0.5-0.5s0.224-0.5 0.5-0.5v0h1c0.276 0 0.5 0.224 0.5 0.5s-0.224 0.5-0.5 0.5v0zM21.5 20.030h-1c-0.276 0-0.5-0.224-0.5-0.5s0.224-0.5 0.5-0.5v0h1c0.276 0 0.5 0.224 0.5 0.5s-0.224 0.5-0.5 0.5v0zM21.5 18.030h-1c-0.276 0-0.5-0.224-0.5-0.5s0.224-0.5 0.5-0.5v0h1c0.276 0 0.5 0.224 0.5 0.5s-0.224 0.5-0.5 0.5v0z"></path>
</symbol>
<symbol id="icon-shuttle" viewBox="0 0 32 32">
<path fill="#ffd050" style="fill: var(--color2, #ffd050)" d="M8.139 8.641l-2.771 0.214c-0.79 0.060-1.47 0.483-1.88 1.101l-0.006 0.009-3.197 4.835c-0.324 0.49-0.376 1.102-0.138 1.639 0.237 0.536 0.725 0.91 1.305 1l2.538 0.392c0.594-3.151 2.016-6.294 4.15-9.191zM14.169 28.010l0.392 2.538c0.128 0.827 0.834 1.453 1.687 1.453 0.003 0 0.005 0 0.008-0h-0c0.331 0 0.658-0.097 0.945-0.285l4.835-3.197c0.646-0.427 1.050-1.113 1.11-1.885l0.214-2.773c-2.897 2.134-6.040 3.556-9.191 4.15zM13.213 26.248c0.088 0 0.177-0.007 0.264-0.021 1.437-0.248 2.716-0.623 3.929-1.124l-0.122 0.045-10.433-10.433c-0.456 1.091-0.83 2.369-1.062 3.697l-0.016 0.11c-0.088 0.52 0.088 1.050 0.459 1.425l5.823 5.821c0.31 0.309 0.728 0.481 1.159 0.481z"></path>
<path fill="#232536" style="fill: var(--color1, #232536)" d="M29.448 14.187c2.553-4.935 2.648-10.151 2.514-12.598-0.046-0.837-0.714-1.505-1.547-1.551l-0.004-0c-0.416-0.024-0.902-0.038-1.392-0.038-0.004 0-0.009 0-0.013 0h0.001c-2.734 0-7.062 0.415-11.194 2.552-3.283 1.697-7.591 5.439-10.131 10.354 0.032 0.025 0.061 0.049 0.088 0.075l11.25 11.25c0.028 0.028 0.051 0.057 0.075 0.088 4.915-2.541 8.655-6.847 10.354-10.131zM18.606 6.765c0.849-0.847 2.021-1.371 3.315-1.371s2.466 0.524 3.315 1.371l-0-0c0.885 0.886 1.372 2.063 1.372 3.315s-0.487 2.429-1.372 3.314c-0.846 0.847-2.015 1.37-3.307 1.37-0.003 0-0.006 0-0.009 0h0c-0.003 0-0.005 0-0.008 0-1.291 0-2.46-0.524-3.306-1.37l-0-0c-0.848-0.844-1.373-2.012-1.373-3.302 0-0.004 0-0.008 0-0.013v0.001c0-1.252 0.487-2.429 1.373-3.315z"></path>
<path fill="#232536" style="fill: var(--color1, #232536)" d="M19.932 12.068c0.509 0.506 1.211 0.819 1.985 0.819 1.553 0 2.812-1.257 2.816-2.808v-0c0-0.751-0.292-1.457-0.824-1.988-0.507-0.507-1.208-0.821-1.982-0.821-0.003 0-0.005 0-0.008 0h0c-0.719 0-1.44 0.273-1.988 0.821-0.53 0.531-0.824 1.238-0.824 1.99s0.292 1.457 0.824 1.988z"></path>
<path fill="#ffd050" style="fill: var(--color2, #ffd050)" d="M0.957 26.371c0 0 0 0 0 0 0.259 0 0.493-0.105 0.662-0.275l3.061-3.061c0.185-0.172 0.3-0.416 0.3-0.687 0-0.518-0.42-0.938-0.938-0.938-0.272 0-0.516 0.115-0.687 0.3l-0.001 0.001-3.061 3.061c-0.169 0.17-0.274 0.404-0.274 0.662 0 0.518 0.42 0.938 0.937 0.938v0zM7.485 24.515c-0.17-0.17-0.404-0.275-0.663-0.275s-0.493 0.105-0.663 0.275l-5.885 5.885c-0.162 0.168-0.262 0.398-0.262 0.65 0 0.518 0.42 0.938 0.938 0.938 0.253 0 0.482-0.1 0.65-0.262l5.885-5.885c0.17-0.17 0.275-0.404 0.275-0.663s-0.105-0.493-0.275-0.663v0zM8.963 27.32l-3.061 3.061c-0.177 0.171-0.288 0.41-0.288 0.676 0 0.518 0.42 0.938 0.938 0.938 0.265 0 0.505-0.11 0.676-0.287l3.061-3.061c0.162-0.168 0.262-0.398 0.262-0.65 0-0.518-0.42-0.938-0.938-0.938-0.253 0-0.482 0.1-0.65 0.262l0-0z"></path>
</symbol>
<symbol id="icon-cyborg" viewBox="0 0 32 32">
<path fill="#232536" style="fill: var(--color1, #232536)" d="M20.691 9.375c0 1.033 0.84 1.876 1.875 1.876h5.573c-0.105-1.376-0.425-2.651-0.926-3.83l0.030 0.079h-4.677c-1.033 0-1.875 0.841-1.875 1.875z"></path>
<path fill="#ffd050" style="fill: var(--color2, #ffd050)" d="M8.503 32h11.251c0.518 0 0.937-0.42 0.937-0.937v0-4.813h1.875v-6.093l-9.375-7.031h-8.439c-0.518 0-0.937 0.42-0.937 0.937v0c0.002 3.454 1.439 6.572 3.747 8.791l0.004 0.004v8.205c0 0.519 0.419 0.937 0.937 0.937z"></path>
<path fill="#232536" style="fill: var(--color1, #232536)" d="M16.003 0c-0.518 0-0.937 0.42-0.937 0.937v0.937h-3.923c-0.395-1.099-1.427-1.871-2.64-1.875h-0c-1.551 0-2.813 1.261-2.813 2.813 0 1.551 1.263 2.812 2.813 2.812 1.22 0 2.252-0.787 2.64-1.876h3.923v3.751h-9.547c-0.395-1.099-1.427-1.871-2.64-1.875h-0c-1.552 0-2.876 1.261-2.876 2.813 0 1.549 1.324 2.812 2.875 2.812 1.221 0 2.252-0.787 2.64-1.876h9.547v2.813l9 6.749c0.229 0.173 0.376 0.445 0.376 0.751v0 6.561h0.937c1.551 0 2.813-1.261 2.813-2.812v-4.687h2.875c0 0 0.001 0 0.001 0 0.518 0 0.937-0.42 0.937-0.937 0-0.194-0.059-0.375-0.16-0.525l0.002 0.003-2.84-4.167h-6.44c-2.072-0.001-3.751-1.68-3.752-3.752v-0c0.002-2.070 1.68-3.748 3.751-3.749h3.688c-2.168-3.376-5.945-5.624-10.249-5.624z"></path>
</symbol>
<symbol id="icon-economy" viewBox="0 0 31 32">
<path fill="#e5e5e5" style="fill: var(--color3, #e5e5e5)" d="M0 0h30.667v32h-30.667z"></path>
<path fill="#fff" style="fill: var(--color4, #fff)" d="M-1041.333-3534.667h1920v7994.667h-1920z"></path>
<path fill="none" opacity="0.3" stroke="#6d6e76" style="stroke: var(--color5, #6d6e76)" stroke-linejoin="miter" stroke-linecap="butt" stroke-miterlimit="4" stroke-width="1.3333" d="M-59.333-58h393.333v302.667h-393.333z"></path>
<path fill="#fbf6ea" style="fill: var(--color6, #fbf6ea)" d="M34.667 49.333h-40c-6.627 0-12-5.373-12-12v0-40c0-6.627 5.373-12 12-12v0h40c6.627 0 12 5.373 12 12v0 40c0 6.627-5.373 12-12 12v0z"></path>
<path fill="#232536" style="fill: var(--color1, #232536)" d="M6.821 20.567h-3.445c-1.243 0-2.253 1.057-2.253 2.356v7.631c0 0.797 0.62 1.447 1.384 1.447h5.184c0.763 0 1.383-0.649 1.383-1.447v-7.631c0-1.299-1.011-2.356-2.253-2.356zM16.933 15.933h-3.445c-1.243 0-2.253 1.056-2.253 2.355v12.265c0 0.797 0.62 1.447 1.384 1.447h5.184c0.763 0 1.383-0.649 1.383-1.447v-12.267c0-1.297-1.011-2.355-2.253-2.355zM27.235 10.652h-3.445c-1.243 0-2.253 1.056-2.253 2.355v17.547c0 0.797 0.621 1.447 1.384 1.447h5.184c0.763 0 1.384-0.649 1.384-1.447v-17.547c0-1.299-1.011-2.355-2.253-2.355z"></path>
<path fill="#ffd050" style="fill: var(--color2, #ffd050)" d="M24.491 0.891c-0.356-0.54-0.961-0.892-1.647-0.892-0.066 0-0.131 0.003-0.195 0.009l0.008-0.001-6.507 0.629c-0.745 0.077-1.363 0.552-1.643 1.207l-0.005 0.013c-0.119 0.26-0.188 0.563-0.188 0.883 0 0.455 0.14 0.877 0.379 1.226l-0.005-0.007 0.363 0.536-8.084 5.84c-0.564 0.423-0.956 1.047-1.071 1.764l-0.002 0.016c-0.117 0.723 0.040 1.452 0.445 2.051 0.47 0.7 1.258 1.155 2.151 1.16h0.001c0.568-0.001 1.092-0.19 1.513-0.506l-0.007 0.005 8.089-5.843 0.376 0.553c0.357 0.54 0.962 0.891 1.649 0.891 0.065 0 0.129-0.003 0.193-0.009l-0.008 0.001c0.745-0.077 1.363-0.552 1.643-1.206l0.005-0.013 2.732-6.207c0.119-0.26 0.188-0.563 0.188-0.883 0-0.455-0.14-0.877-0.379-1.226l0.005 0.007z"></path>
</symbol>
<symbol id="icon-Logo1" viewBox="0 0 160 32">
<path d="M24.447 14.083c-0.434 0.443-0.774 0.98-0.988 1.577l-0.010 0.030c-0.158 0.437-0.25 0.94-0.25 1.466 0 0.148 0.007 0.294 0.021 0.438l-0.001-0.018-0.022-0.022c0.012 0.131 0.018 0.283 0.018 0.437 0 0.638-0.114 1.249-0.322 1.815l0.012-0.036c-0.269 0.735-0.672 1.363-1.185 1.884l0.001-0.001c-0.51 0.518-1.128 0.927-1.819 1.19l-0.035 0.012c-0.521 0.2-1.123 0.315-1.753 0.315-0.151 0-0.3-0.007-0.447-0.020l0.019 0.001 0.021 0.021c-0.12-0.012-0.258-0.019-0.399-0.019-0.79 0-1.53 0.215-2.165 0.59l0.020-0.011c-0.773 0.456-1.38 1.12-1.754 1.916l-0.011 0.027c-0.259 0.547-0.41 1.188-0.41 1.864 0 0.267 0.024 0.529 0.069 0.783l-0.004-0.027c0.162 0.922 0.59 1.724 1.202 2.346l-0.001-0.001c0.607 0.617 1.398 1.052 2.285 1.214l0.026 0.004c0.223 0.041 0.48 0.065 0.742 0.065 0.668 0 1.301-0.154 1.864-0.428l-0.025 0.011c0.814-0.396 1.469-1.013 1.901-1.773l0.011-0.021c0.358-0.626 0.569-1.376 0.569-2.174 0-0.144-0.007-0.287-0.020-0.427l0.001 0.018 0.022 0.021c-0.012-0.131-0.018-0.282-0.018-0.436 0-0.638 0.114-1.249 0.322-1.815l-0.012 0.036c0.269-0.735 0.672-1.363 1.185-1.884l-0.001 0.001c0.51-0.518 1.128-0.927 1.819-1.19l0.035-0.012c0.521-0.2 1.123-0.315 1.752-0.315 0.151 0 0.3 0.007 0.448 0.020l-0.019-0.001-0.022-0.021c0.115 0.011 0.25 0.017 0.385 0.017 0.626 0 1.22-0.135 1.756-0.378l-0.027 0.011c0.682-0.308 1.249-0.764 1.68-1.329l0.008-0.011c0.558-0.734 0.894-1.664 0.894-2.672 0-0.536-0.095-1.049-0.269-1.524l0.010 0.031c-0.259-0.713-0.674-1.317-1.206-1.792l-0.004-0.004c-0.524-0.468-1.169-0.812-1.883-0.976l-0.029-0.006c-0.279-0.065-0.599-0.103-0.929-0.103-0.432 0-0.849 0.065-1.242 0.185l0.030-0.008c-0.696 0.207-1.33 0.589-1.842 1.11h-0.003zM15.785 20.36l-0.023-0.022c0.128 0.014 0.276 0.022 0.427 0.022 0.514 0 1.006-0.092 1.462-0.261l-0.029 0.009c0.62-0.228 1.148-0.574 1.581-1.014l0.001-0.001c0.436-0.442 0.778-0.979 0.992-1.576l0.009-0.030c0.157-0.433 0.248-0.934 0.248-1.455 0-0.152-0.008-0.302-0.023-0.45l0.002 0.019 0.022 0.022c-0.012-0.131-0.018-0.282-0.018-0.436 0-0.638 0.114-1.249 0.322-1.815l-0.012 0.036c0.269-0.735 0.672-1.364 1.185-1.885l-0.001 0.001c0.51-0.518 1.129-0.927 1.82-1.19l0.035-0.012c0.52-0.199 1.122-0.314 1.75-0.314 0.151 0 0.301 0.007 0.449 0.020l-0.019-0.001-0.022-0.022c0.121 0.012 0.261 0.019 0.402 0.019 0.789 0 1.528-0.214 2.162-0.588l-0.020 0.011c0.773-0.455 1.381-1.12 1.756-1.915l0.011-0.027c0.259-0.547 0.41-1.189 0.41-1.866 0-0.266-0.023-0.527-0.068-0.781l0.004 0.027c-0.161-0.922-0.59-1.725-1.201-2.347l0.001 0.001c-0.607-0.618-1.398-1.053-2.284-1.216l-0.026-0.004c-0.223-0.041-0.48-0.065-0.742-0.065-0.668 0-1.301 0.154-1.864 0.428l0.025-0.011c-0.814 0.396-1.469 1.013-1.902 1.773l-0.011 0.021c-0.358 0.626-0.569 1.376-0.569 2.175 0 0.144 0.007 0.287 0.020 0.427l-0.001-0.018-0.020-0.022c0.012 0.131 0.018 0.283 0.018 0.436 0 0.638-0.114 1.249-0.322 1.814l0.012-0.036c-0.269 0.735-0.672 1.364-1.185 1.885l0.001-0.001c-0.51 0.518-1.129 0.927-1.82 1.19l-0.035 0.012c-0.52 0.199-1.122 0.314-1.75 0.314-0.152 0-0.302-0.007-0.45-0.020l0.019 0.001 0.021 0.023c-0.128-0.014-0.277-0.022-0.428-0.022-0.513 0-1.005 0.092-1.46 0.26l0.029-0.009c-0.62 0.229-1.149 0.575-1.582 1.015l-0.001 0.001c-0.436 0.442-0.777 0.979-0.992 1.576l-0.009 0.030c-0.157 0.433-0.248 0.934-0.248 1.455 0 0.152 0.008 0.302 0.023 0.449l-0.002-0.019-0.022-0.020c0.011 0.13 0.018 0.282 0.018 0.435 0 0.638-0.114 1.249-0.322 1.815l0.012-0.036c-0.269 0.735-0.672 1.363-1.185 1.884l0.001-0.001c-0.51 0.518-1.128 0.927-1.819 1.19l-0.035 0.012c-0.521 0.2-1.123 0.315-1.753 0.315-0.151 0-0.3-0.007-0.447-0.020l0.019 0.001 0.021 0.022c-0.121-0.012-0.261-0.019-0.403-0.019-0.789 0-1.528 0.214-2.162 0.588l0.020-0.011c-0.773 0.455-1.381 1.12-1.756 1.915l-0.011 0.027c-0.259 0.547-0.41 1.189-0.41 1.866 0 0.266 0.023 0.527 0.068 0.781l-0.004-0.027c0.161 0.922 0.589 1.725 1.201 2.347l-0.001-0.001c0.607 0.618 1.398 1.053 2.285 1.216l0.026 0.004c0.223 0.041 0.48 0.065 0.742 0.065 0.668 0 1.301-0.154 1.864-0.428l-0.025 0.011c0.814-0.396 1.469-1.013 1.902-1.773l0.011-0.021c0.441-0.784 0.633-1.686 0.55-2.584l0.022 0.021c-0.012-0.131-0.018-0.282-0.018-0.436 0-0.638 0.114-1.249 0.322-1.815l-0.012 0.036c0.269-0.735 0.672-1.364 1.185-1.885l-0.001 0.001c0.51-0.518 1.129-0.927 1.82-1.19l0.035-0.012c0.52-0.199 1.122-0.314 1.75-0.314 0.151 0 0.301 0.007 0.449 0.020l-0.019-0.001zM7.914 17.967c0.434-0.443 0.774-0.98 0.988-1.577l0.010-0.030c0.212-0.603 0.29-1.247 0.23-1.885l0.022 0.021c-0.012-0.131-0.018-0.282-0.018-0.436 0-0.638 0.114-1.249 0.322-1.815l-0.012 0.036c0.255-0.708 0.66-1.351 1.184-1.884 0.51-0.518 1.13-0.927 1.821-1.19l0.035-0.012c0.52-0.199 1.122-0.314 1.75-0.314 0.152 0 0.302 0.007 0.45 0.020l-0.019-0.001-0.022-0.021c0.12 0.012 0.26 0.019 0.402 0.019 0.79 0 1.529-0.215 2.163-0.589l-0.020 0.011c0.773-0.455 1.381-1.12 1.755-1.915l0.011-0.027c0.259-0.547 0.41-1.189 0.41-1.866 0-0.266-0.023-0.528-0.068-0.781l0.004 0.027c-0.162-0.922-0.59-1.724-1.201-2.346l0.001 0.001c-0.607-0.617-1.399-1.051-2.286-1.213l-0.026-0.004c-0.224-0.042-0.482-0.066-0.745-0.066-0.667 0-1.298 0.153-1.86 0.427l0.025-0.011c-0.813 0.397-1.467 1.013-1.899 1.773l-0.011 0.021c-0.358 0.626-0.569 1.375-0.569 2.174 0 0.144 0.007 0.286 0.020 0.427l-0.001-0.018-0.020-0.021c0.011 0.13 0.018 0.281 0.018 0.434 0 0.639-0.114 1.251-0.323 1.817l0.012-0.036c-0.269 0.735-0.672 1.363-1.185 1.884l0.001-0.001c-0.51 0.518-1.128 0.927-1.819 1.19l-0.035 0.012c-0.521 0.2-1.123 0.315-1.752 0.315-0.151 0-0.3-0.007-0.448-0.020l0.019 0.001 0.021 0.021c-0.115-0.011-0.249-0.017-0.385-0.017-0.626 0-1.221 0.135-1.756 0.378l0.027-0.011c-0.682 0.309-1.249 0.765-1.68 1.33l-0.008 0.011c-0.557 0.734-0.893 1.663-0.893 2.671 0 0.536 0.095 1.050 0.269 1.525l-0.010-0.031c0.249 0.692 0.665 1.31 1.21 1.795 0.524 0.468 1.169 0.812 1.883 0.976l0.029 0.006c0.279 0.065 0.599 0.103 0.929 0.103 0.432 0 0.85-0.065 1.243-0.185l-0.030 0.008c0.725-0.22 1.345-0.604 1.841-1.109l0.001-0.001h-0.003zM44.285 6.076h3.487v17.231h-3.487v-17.23zM49.748 17.407c-0-0.008-0-0.018-0-0.027 0-1.285 0.383-2.481 1.042-3.478l-0.015 0.024c0.672-1.022 1.612-1.818 2.72-2.3l0.040-0.015c0.7-0.305 1.516-0.483 2.373-0.483 0.42 0 0.83 0.043 1.226 0.124l-0.039-0.007c1.248 0.256 2.326 0.86 3.16 1.705l0.001 0.001c0.84 0.852 1.44 1.943 1.686 3.163l0.007 0.040c0.077 0.37 0.12 0.795 0.12 1.23 0 0.861-0.171 1.681-0.482 2.43l0.015-0.042c-0.479 1.162-1.261 2.118-2.248 2.797l-0.021 0.014c-0.959 0.66-2.146 1.055-3.425 1.056h-0c-0.020 0-0.044 0-0.068 0-0.828 0-1.617-0.167-2.334-0.47l0.039 0.015c-0.781-0.328-1.447-0.783-2.004-1.346l-0.001-0.001c-0.56-0.566-1.012-1.241-1.321-1.99l-0.015-0.041c-0.289-0.695-0.457-1.503-0.457-2.35 0-0.017 0-0.034 0-0.051l-0 0.003zM58.582 17.407c-0.015-0.558-0.195-1.072-0.492-1.497l0.006 0.009c-0.301-0.43-0.714-0.763-1.197-0.96l-0.018-0.006c-0.288-0.118-0.622-0.186-0.972-0.186-0.201 0-0.397 0.023-0.585 0.065l0.018-0.003c-0.535 0.121-0.995 0.389-1.349 0.759l-0.001 0.001c-0.356 0.372-0.607 0.846-0.707 1.374l-0.003 0.017c-0.030 0.152-0.047 0.326-0.047 0.504 0 0.381 0.077 0.744 0.217 1.074l-0.007-0.018c0.204 0.491 0.547 0.911 0.986 1.206s0.952 0.453 1.478 0.453c0.018 0 0.039 0.001 0.061 0.001 0.738 0 1.404-0.307 1.877-0.8l0.001-0.001c0.457-0.48 0.739-1.132 0.739-1.849 0-0.050-0.001-0.099-0.004-0.148l0 0.007zM75.969 11.506v11.207c0 3.965-3.046 5.641-6.137 5.641-0.133 0.011-0.287 0.017-0.443 0.017-0.989 0-1.921-0.245-2.739-0.677l0.032 0.015c-0.985-0.52-1.785-1.274-2.345-2.19l-0.015-0.026 2.976-1.747c0.24 0.493 0.622 0.9 1.096 1.165 0.37 0.211 0.812 0.336 1.284 0.336 0.095 0 0.189-0.005 0.281-0.015l-0.011 0.001c0.344 0.049 0.694 0.018 1.025-0.090 0.33-0.108 0.633-0.29 0.885-0.532s0.448-0.54 0.572-0.869 0.173-0.683 0.144-1.034v-1.079c-0.408 0.507-0.928 0.91-1.517 1.177-0.493 0.229-1.070 0.362-1.678 0.362-0.070 0-0.139-0.002-0.208-0.005l0.010 0c-1.6-0.055-3.029-0.742-4.054-1.818l-0.002-0.002c-1.031-1.082-1.665-2.55-1.665-4.167 0-0.003 0-0.006 0-0.009v0c0-1.558 0.597-3.055 1.665-4.174 1.027-1.078 2.456-1.765 4.046-1.82l0.010-0c0.059-0.003 0.129-0.005 0.198-0.005 0.608 0 1.186 0.133 1.704 0.372l-0.025-0.010c0.59 0.266 1.109 0.67 1.517 1.177v-1.204l3.395 0.002zM72.576 17.17c0.002-0.035 0.002-0.077 0.002-0.119 0-0.555-0.156-1.074-0.428-1.515l0.007 0.013c-0.296-0.483-0.719-0.863-1.223-1.099l-0.017-0.007c-0.341-0.16-0.74-0.254-1.161-0.254-0.76 0-1.448 0.305-1.95 0.798l0-0c-0.395 0.387-0.679 0.886-0.8 1.445l-0.003 0.019c-0.040 0.181-0.063 0.388-0.063 0.601 0 0.385 0.075 0.752 0.211 1.088l-0.007-0.019c0.21 0.53 0.572 0.983 1.039 1.302 0.466 0.32 1.016 0.49 1.578 0.49 0.055 0.004 0.119 0.007 0.184 0.007 0.709 0 1.352-0.285 1.821-0.746l-0 0c0.265-0.258 0.474-0.57 0.613-0.915s0.205-0.716 0.195-1.089zM77.944 17.407c-0-0.009-0-0.019-0-0.029 0-1.284 0.383-2.479 1.041-3.477l-0.015 0.024c0.672-1.022 1.612-1.818 2.72-2.3l0.040-0.015c0.7-0.305 1.516-0.483 2.374-0.483 0.42 0 0.83 0.043 1.226 0.124l-0.039-0.007c1.247 0.256 2.325 0.86 3.159 1.705l0.001 0.001c0.841 0.852 1.441 1.943 1.687 3.163l0.007 0.040c0.076 0.369 0.12 0.794 0.12 1.229 0 0.861-0.172 1.683-0.483 2.431l0.015-0.042c-0.479 1.162-1.26 2.118-2.247 2.797l-0.021 0.014c-0.96 0.661-2.147 1.055-3.426 1.056h-0c-0.020 0-0.044 0-0.067 0-0.828 0-1.617-0.167-2.334-0.47l0.040 0.015c-0.782-0.328-1.448-0.783-2.005-1.346l-0.001-0.001c-0.56-0.567-1.011-1.241-1.32-1.99l-0.015-0.041c-0.289-0.695-0.457-1.503-0.457-2.35 0-0.017 0-0.034 0-0.050l-0 0.003zM86.778 17.407c-0.016-0.558-0.196-1.072-0.493-1.497l0.006 0.009c-0.301-0.43-0.714-0.763-1.197-0.96l-0.018-0.006c-0.288-0.117-0.622-0.186-0.972-0.186-0.201 0-0.397 0.023-0.585 0.065l0.018-0.003c-0.535 0.121-0.995 0.389-1.349 0.759l-0.001 0.001c-0.356 0.372-0.609 0.846-0.709 1.374l-0.003 0.017c-0.029 0.151-0.046 0.325-0.046 0.502 0 0.382 0.078 0.745 0.218 1.076l-0.007-0.018c0.205 0.491 0.548 0.911 0.986 1.206s0.952 0.453 1.478 0.453c0.018 0 0.039 0.001 0.061 0.001 0.738 0 1.404-0.307 1.877-0.8l0.001-0.001c0.457-0.481 0.739-1.133 0.739-1.85 0-0.049-0.001-0.098-0.004-0.146l0 0.007zM91.89 8.342c0-0.42 0.123-0.83 0.353-1.18s0.557-0.622 0.94-0.783c0.382-0.16 0.802-0.202 1.208-0.12s0.778 0.284 1.072 0.581c0.378 0.387 0.612 0.917 0.612 1.501 0 0.73-0.365 1.376-0.922 1.763l-0.007 0.005c-0.326 0.224-0.729 0.358-1.163 0.358h-0c-0.578-0.007-1.098-0.246-1.474-0.629l-0-0c-0.378-0.386-0.613-0.913-0.618-1.495v-0.001zM92.243 11.505h3.488v11.803h-3.493l0.005-11.803zM110.789 17.407c0.040 0.78-0.071 1.56-0.329 2.297-0.274 0.77-0.673 1.432-1.178 1.998l0.005-0.006c-0.507 0.567-1.116 1.031-1.8 1.366l-0.035 0.015c-0.648 0.318-1.405 0.52-2.206 0.559l-0.013 0.001c-0.071 0.004-0.155 0.007-0.239 0.007-0.596 0-1.164-0.121-1.68-0.34l0.028 0.011c-0.62-0.262-1.144-0.641-1.567-1.112l-0.004-0.004v5.83h-3.488v-16.521h3.488v1.108c0.427-0.475 0.952-0.853 1.543-1.104l0.029-0.011c0.488-0.209 1.057-0.331 1.653-0.331 0.083 0 0.166 0.002 0.248 0.007l-0.011-0.001c0.814 0.040 1.571 0.242 2.253 0.575l-0.034-0.015c0.695 0.334 1.32 0.804 1.836 1.383 0.937 1.048 1.51 2.439 1.51 3.964 0 0.115-0.003 0.228-0.010 0.341l0.001-0.016zM107.302 17.407c-0.014-0.577-0.199-1.109-0.506-1.549l0.006 0.009c-0.31-0.447-0.737-0.793-1.237-0.997l-0.019-0.007c-0.299-0.123-0.646-0.194-1.010-0.194-0.206 0-0.407 0.023-0.601 0.066l0.018-0.003c-0.554 0.124-1.031 0.401-1.398 0.784l-0.001 0.001c-0.38 0.395-0.637 0.896-0.738 1.439-0.1 0.543-0.042 1.104 0.169 1.613 0.212 0.509 0.567 0.944 1.020 1.25 0.454 0.305 0.986 0.468 1.53 0.467 0.373 0.017 0.746-0.046 1.094-0.186s0.662-0.352 0.924-0.624c0.466-0.489 0.753-1.152 0.753-1.883 0-0.065-0.002-0.13-0.007-0.195l0.001 0.009zM121.548 19.767c0 2.714-2.323 3.87-4.833 3.87-0.138 0.013-0.297 0.021-0.459 0.021-0.906 0-1.756-0.24-2.49-0.659l0.025 0.013c-0.896-0.511-1.606-1.257-2.061-2.154l-0.013-0.029 3.020-1.747c0.123 0.427 0.385 0.797 0.744 1.050 0.36 0.254 0.793 0.375 1.229 0.343 0.837 0 1.255-0.26 1.255-0.731 0-1.3-5.719-0.614-5.719-4.697 0-2.574 2.14-3.872 4.557-3.872 0.909-0.029 1.809 0.19 2.606 0.634 0.805 0.456 1.457 1.097 1.913 1.868l0.013 0.024-2.975 1.628c-0.134-0.313-0.349-0.571-0.619-0.753l-0.006-0.004c-0.26-0.176-0.582-0.281-0.927-0.281-0.002 0-0.003 0-0.005 0h0c-0.604 0-0.977 0.238-0.977 0.66 0.004 1.346 5.722 0.448 5.722 4.816zM134.289 11.505v11.803h-3.487v-1.11c-0.402 0.49-0.913 0.876-1.49 1.126-0.46 0.204-0.996 0.324-1.56 0.324-0.096 0-0.192-0.003-0.286-0.010l0.013 0.001c-2.348 0-4.344-1.698-4.344-4.888v-7.245h3.487v6.727c-0.007 0.061-0.010 0.131-0.010 0.202 0 0.521 0.202 0.995 0.532 1.348l-0.001-0.001c0.35 0.37 0.844 0.6 1.392 0.6 0.038 0 0.077-0.001 0.114-0.003l-0.005 0c1.279 0 2.161-0.755 2.161-2.431v-6.438l3.484-0.004zM154.283 16.061v7.247h-3.487v-6.94c0-1.18-0.559-1.935-1.674-1.935-1.162 0-1.814 0.826-1.814 2.218v6.657h-3.485v-6.94c0-1.18-0.559-1.935-1.675-1.935-1.163 0-1.813 0.826-1.813 2.218v6.657h-3.487v-11.803h3.487v1.084c0.359-0.475 0.823-0.852 1.359-1.101l0.022-0.009c0.428-0.2 0.929-0.316 1.457-0.316 0.097 0 0.194 0.004 0.29 0.012l-0.013-0.001c0.050-0.003 0.109-0.004 0.169-0.004 0.568 0 1.103 0.139 1.574 0.384l-0.019-0.009c0.534 0.273 0.989 0.682 1.321 1.186 0.384-0.522 0.885-0.937 1.465-1.21l0.023-0.010c0.465-0.22 1.010-0.349 1.585-0.349 0.105 0 0.208 0.004 0.31 0.013l-0.013-0.001c2.669 0.002 4.418 1.937 4.418 4.887zM157.234 11.432c1.429 0 2.588-1.176 2.588-2.627s-1.159-2.628-2.588-2.628c-1.428 0-2.588 1.177-2.588 2.628s1.16 2.627 2.588 2.627z"></path>
</symbol>
<symbol id="icon-Logo2" viewBox="0 0 136 32">
<path d="M32.934 7.806h3.119v15.162h-3.12v-15.162zM37.797 17.774c0-1.091 0.321-2.157 0.922-3.064 0.6-0.898 1.436-1.597 2.419-2.015l0.036-0.014c1-0.416 2.098-0.523 3.158-0.308 1.103 0.23 2.056 0.767 2.793 1.516l0.001 0.001c0.74 0.752 1.267 1.716 1.48 2.793l0.006 0.035c0.064 0.318 0.101 0.683 0.101 1.056 0 0.768-0.156 1.5-0.438 2.166l0.014-0.036c-0.431 1.022-1.128 1.86-2.005 2.453l-0.019 0.012c-0.902 0.602-1.96 0.92-3.040 0.913-0.013 0-0.028 0-0.043 0-0.739 0-1.443-0.15-2.083-0.421l0.035 0.013c-0.69-0.291-1.278-0.694-1.769-1.193l-0.001-0.001c-0.969-0.987-1.566-2.341-1.566-3.835 0-0.025 0-0.050 0.001-0.075l-0 0.004zM45.616 17.774c-0.013-0.492-0.172-0.945-0.435-1.32l0.005 0.008c-0.266-0.38-0.632-0.674-1.060-0.847l-0.016-0.006c-0.257-0.105-0.554-0.165-0.866-0.165-0.666 0-1.268 0.277-1.695 0.723l-0.001 0.001c-0.416 0.433-0.672 1.022-0.672 1.671 0 0.335 0.068 0.654 0.192 0.944l-0.006-0.016c0.18 0.434 0.484 0.804 0.873 1.064s0.844 0.399 1.31 0.399c0.014 0 0.030 0 0.047 0 0.652 0 1.24-0.272 1.658-0.71l0.001-0.001c0.401-0.418 0.649-0.987 0.649-1.613 0-0.046-0.001-0.092-0.004-0.138l0 0.006h0.020zM60.992 12.58v9.874c0 3.483-2.703 4.963-5.437 4.963-0.127 0.011-0.275 0.017-0.424 0.017-0.866 0-1.681-0.213-2.398-0.59l0.028 0.014c-0.872-0.457-1.578-1.125-2.070-1.937l-0.013-0.023 2.63-1.531c0.214 0.433 0.553 0.791 0.973 1.026s0.9 0.334 1.377 0.285c0.077 0.010 0.166 0.016 0.257 0.016 0.554 0 1.058-0.219 1.428-0.575l-0.001 0.001c0.401-0.383 0.65-0.921 0.65-1.518 0-0.052-0.002-0.103-0.006-0.154l0 0.007v-0.955c-0.359 0.437-0.809 0.786-1.322 1.021l-0.023 0.009c-0.522 0.233-1.090 0.34-1.66 0.313-1.378 0-2.7-0.553-3.675-1.537-0.941-0.952-1.523-2.261-1.523-3.706 0-0.001 0-0.003 0-0.004v0c0-0.001 0-0.002 0-0.003 0-1.445 0.582-2.754 1.523-3.706l-0 0c0.937-0.948 2.237-1.536 3.675-1.537h0c0.57-0.027 1.138 0.080 1.66 0.313s0.982 0.586 1.345 1.030v-1.049l3.005-0.063zM57.988 17.564c0.001-0.031 0.002-0.067 0.002-0.104 0-0.489-0.138-0.946-0.378-1.333l0.006 0.011c-0.262-0.426-0.636-0.76-1.081-0.968l-0.015-0.006c-0.302-0.141-0.655-0.224-1.028-0.224-0.671 0-1.28 0.267-1.726 0.701l0.001-0.001c-0.474 0.462-0.769 1.107-0.769 1.82 0 0.337 0.066 0.658 0.185 0.953l-0.006-0.017c0.186 0.466 0.505 0.866 0.917 1.148 0.391 0.27 0.875 0.432 1.397 0.433h0c0.050 0.004 0.109 0.006 0.168 0.006 0.627 0 1.195-0.25 1.611-0.655l-0.001 0c0.443-0.429 0.717-1.028 0.717-1.692 0-0.026-0-0.052-0.001-0.078l0 0.004zM62.75 17.774c0-1.090 0.32-2.156 0.92-3.062 0.6-0.897 1.434-1.595 2.416-2.014l0.036-0.014c0.616-0.265 1.333-0.419 2.087-0.419 0.378 0 0.747 0.039 1.103 0.113l-0.035-0.006c1.103 0.228 2.056 0.762 2.794 1.509l0.001 0.001c0.741 0.751 1.269 1.713 1.484 2.789l0.006 0.035c0.21 1.069 0.1 2.177-0.314 3.183-0.428 1.023-1.122 1.863-1.996 2.458l-0.019 0.012c-0.849 0.578-1.897 0.923-3.026 0.923-0.003 0-0.006 0-0.009 0h0c-0.015 0-0.034 0-0.052 0-0.737 0-1.439-0.149-2.079-0.418l0.035 0.013c-0.692-0.29-1.282-0.693-1.775-1.192l-0.001-0c-0.495-0.5-0.894-1.097-1.167-1.759l-0.013-0.036c-0.251-0.607-0.397-1.311-0.397-2.050 0-0.023 0-0.045 0-0.068l-0 0.003zM70.569 17.774c-0.013-0.493-0.172-0.946-0.435-1.321l0.005 0.008c-0.267-0.381-0.634-0.675-1.063-0.847l-0.016-0.006c-0.256-0.104-0.552-0.164-0.863-0.164-0.668 0-1.271 0.279-1.699 0.726l-0.001 0.001c-0.414 0.433-0.668 1.020-0.668 1.667 0 0.337 0.069 0.659 0.194 0.95l-0.006-0.016c0.183 0.434 0.489 0.803 0.878 1.062 0.39 0.259 0.847 0.396 1.314 0.394 0.014 0 0.030 0 0.046 0 0.652 0 1.24-0.272 1.658-0.71l0.001-0.001c0.401-0.418 0.648-0.986 0.648-1.612 0-0.047-0.001-0.093-0.004-0.139l0 0.006h0.010zM75.090 9.8c0-0.37 0.108-0.73 0.312-1.038 0.332-0.505 0.896-0.833 1.537-0.833 0.513 0 0.977 0.211 1.31 0.55l0 0c0.336 0.339 0.543 0.805 0.543 1.32 0 0.258-0.052 0.505-0.147 0.729l0.005-0.012c-0.14 0.34-0.377 0.633-0.681 0.838-0.289 0.197-0.645 0.315-1.029 0.315h-0c-0.51-0.007-0.969-0.217-1.302-0.554l-0-0c-0.334-0.338-0.542-0.801-0.548-1.313v-0.001zM75.391 12.58h3.12v10.388h-3.12v-10.388zM91.86 17.773c0.004 0.080 0.007 0.174 0.007 0.268 0 1.359-0.513 2.597-1.356 3.533l0.004-0.005c-0.453 0.502-0.997 0.912-1.607 1.206l-0.031 0.014c-0.578 0.281-1.253 0.459-1.965 0.493l-0.012 0c-0.076 0.005-0.166 0.009-0.256 0.009-0.522 0-1.019-0.104-1.473-0.293l0.025 0.009c-0.559-0.231-1.032-0.569-1.413-0.992l-0.003-0.003v5.131h-3.119v-14.563h3.119v0.976c0.704-0.781 1.719-1.27 2.848-1.27 0.096 0 0.19 0.004 0.284 0.010l-0.013-0.001c1.434 0.067 2.705 0.709 3.599 1.699l0.004 0.005c0.845 0.93 1.362 2.17 1.362 3.531 0 0.086-0.002 0.171-0.006 0.256l0-0.012zM88.74 17.773c-0.013-0.51-0.177-0.979-0.449-1.367l0.005 0.008c-0.276-0.394-0.655-0.699-1.099-0.878l-0.016-0.006c-0.265-0.108-0.573-0.17-0.895-0.17-0.691 0-1.315 0.288-1.758 0.75l-0.001 0.001c-0.429 0.448-0.693 1.056-0.693 1.726 0 0.349 0.072 0.682 0.201 0.984l-0.006-0.016c0.19 0.449 0.505 0.831 0.909 1.1 0.403 0.267 0.876 0.41 1.359 0.408 0.030 0.001 0.065 0.002 0.101 0.002 0.662 0 1.259-0.276 1.684-0.719l0.001-0.001c0.411-0.429 0.664-1.013 0.664-1.655 0-0.059-0.002-0.117-0.006-0.175l0 0.008zM101.351 19.852c0 2.392-2.080 3.41-4.283 3.41-0.121 0.012-0.262 0.018-0.405 0.018-0.803 0-1.558-0.212-2.21-0.582l0.022 0.012c-0.792-0.45-1.421-1.107-1.825-1.898l-0.012-0.026 2.682-1.532c0.106 0.374 0.337 0.7 0.653 0.924 0.316 0.223 0.698 0.33 1.083 0.303 0.738 0 1.113-0.23 1.113-0.65 0-1.144-5.064-0.535-5.064-4.134 0-2.267 1.893-3.4 4.035-3.4 0.060-0.003 0.129-0.004 0.2-0.004 0.785 0 1.522 0.202 2.164 0.556l-0.023-0.012c0.717 0.39 1.317 0.968 1.735 1.674l-2.683 1.427c-0.237-0.54-0.766-0.911-1.382-0.913h-0c-0.54 0-0.863 0.21-0.863 0.577 0 1.196 5.063 0.41 5.063 4.25zM112.652 12.58v10.388h-3.119v-0.976c-0.654 0.793-1.638 1.295-2.738 1.295-0.068 0-0.136-0.002-0.203-0.006l0.009 0c-2.079 0-3.857-1.5-3.857-4.301v-6.4h3.119v5.927c-0.005 0.050-0.008 0.109-0.008 0.168 0 0.463 0.181 0.884 0.476 1.196l-0.001-0.001c0.311 0.326 0.749 0.529 1.234 0.529 0.034 0 0.068-0.001 0.101-0.003l-0.005 0c1.124 0 1.913-0.671 1.913-2.098v-5.719h3.078zM130.326 16.588v6.38h-3.119v-6.108c0-1.050-0.489-1.7-1.477-1.7s-1.611 0.724-1.611 1.952v5.855h-3.119v-6.107c0-1.050-0.488-1.7-1.477-1.7-0.987 0-1.611 0.724-1.611 1.952v5.855h-3.119v-10.387h3.119v0.955c0.321-0.416 0.733-0.747 1.208-0.964l0.020-0.008c0.379-0.174 0.823-0.276 1.29-0.276 0.087 0 0.174 0.004 0.259 0.010l-0.011-0.001c0.047-0.003 0.103-0.004 0.159-0.004 0.498 0 0.969 0.121 1.383 0.334l-0.017-0.008c0.471 0.24 0.874 0.598 1.167 1.042 0.341-0.458 0.784-0.822 1.297-1.061l0.021-0.009c0.411-0.192 0.891-0.305 1.399-0.305 0.094 0 0.187 0.004 0.279 0.011l-0.012-0.001c2.433 0 3.972 1.7 3.972 4.291zM14.355 5.078v-4.46h-13.931v30.64h13.931v-4.46c-2.976-0.002-5.668-1.218-7.608-3.18l-0.001-0.001c-1.948-1.97-3.151-4.679-3.151-7.67 0-0.004 0-0.007 0-0.011v0.001c0-0.002 0-0.005 0-0.007 0-2.991 1.203-5.7 3.152-7.671l-0.001 0.001c1.941-1.963 4.633-3.179 7.609-3.181h0z"></path>
<path d="M14.354 5.078v21.72c2.976-0.003 5.668-1.219 7.607-3.18l0.001-0.001c1.948-1.97 3.152-4.68 3.152-7.671 0-0.003 0-0.006 0-0.010v0.001c0-0.002 0-0.005 0-0.008 0-2.991-1.204-5.701-3.153-7.672l0.001 0.001c-1.94-1.962-4.632-3.178-7.608-3.18h-0zM132.946 12.518c1.264-0.006 2.287-1.033 2.287-2.298 0-0.004 0-0.008-0-0.012v0.001c0-0.003 0-0.007 0-0.010 0-1.265-1.023-2.292-2.286-2.298h-0.001c-1.265 0.006-2.288 1.032-2.288 2.298 0 0.004 0 0.007 0 0.011v-0.001c-0 0.003-0 0.007-0 0.011 0 1.266 1.023 2.292 2.287 2.298h0.001z"></path>
</symbol>
<symbol id="icon-Logo3" viewBox="0 0 135 32">
<path d="M39.303 9.347h3.38v13.658h-3.38v-13.658zM44.025 17.847c0-3.377 2.074-5.393 5.275-5.393s5.274 2.016 5.274 5.394-2.029 5.405-5.274 5.405c-3.246 0-5.275-1.97-5.275-5.405zM51.182 17.847c0-1.857-0.733-2.95-1.882-2.95s-1.871 1.127-1.871 2.95c0 1.825 0.71 2.928 1.87 2.928 1.162 0 1.883-1.035 1.883-2.916v-0.011zM55.848 23.669h3.246c0.28 0.612 0.888 1.030 1.592 1.030 0.082 0 0.163-0.006 0.242-0.017l-0.009 0.001c1.285 0 1.962-0.698 1.962-1.712v-1.891h-0.068c-0.521 1.103-1.624 1.852-2.901 1.852-0.062 0-0.123-0.002-0.184-0.005l0.008 0c-2.468 0-4.102-1.88-4.102-5.112s1.555-5.27 4.147-5.27c0.037-0.002 0.081-0.002 0.124-0.002 1.336 0 2.483 0.809 2.977 1.963l0.008 0.021v-1.88h3.382v10.246c0 2.466-2.175 3.998-5.387 3.998-2.987 0-4.847-1.34-5.038-3.21v-0.010zM62.892 17.837c0-1.644-0.755-2.68-1.95-2.68s-1.927 1.024-1.927 2.68c0 1.655 0.721 2.59 1.927 2.59s1.95-0.913 1.95-2.58v-0.010zM67.547 17.837c0-3.378 2.073-5.394 5.274-5.394s5.286 2.016 5.286 5.394-2.029 5.404-5.286 5.404c-3.257 0-5.274-1.959-5.274-5.393v-0.011zM74.703 17.837c0-1.858-0.732-2.95-1.882-2.95s-1.814 1.137-1.814 2.972 0.71 2.928 1.86 2.928c1.149 0 1.836-1.047 1.836-2.928v-0.022zM79.392 10.191c-0-0.014-0.001-0.030-0.001-0.046 0-0.951 0.771-1.722 1.722-1.722 0.106 0 0.209 0.009 0.309 0.028l-0.010-0.002c0.816 0.147 1.427 0.852 1.427 1.699 0 0.224-0.043 0.439-0.121 0.636l0.004-0.012c-0.253 0.638-0.859 1.083-1.57 1.097l-0.002 0c-0.033 0.002-0.071 0.004-0.11 0.004-0.91 0-1.648-0.738-1.648-1.648 0-0.004 0-0.008 0-0.011v0.001-0.023zM79.392 12.668h3.381v10.337h-3.381v-10.337zM95.047 17.837c0 3.378-1.5 5.303-4.069 5.303-0.062 0.004-0.134 0.007-0.207 0.007-1.309 0-2.435-0.78-2.941-1.9l-0.008-0.020h-0.067v5.090h-3.381v-13.67h3.38v1.846h0.068c0.498-1.182 1.646-1.996 2.985-1.996 0.052 0 0.104 0.001 0.155 0.004l-0.007-0c2.593 0.046 4.136 1.982 4.136 5.36l-0.044-0.022zM91.666 17.837c0-1.644-0.756-2.691-1.939-2.691-1.184 0-1.939 1.058-1.95 2.69s0.766 2.68 1.95 2.68c1.183 0 1.939-1.024 1.939-2.657v-0.022zM100.851 12.432c2.806 0 4.508 1.329 4.587 3.457h-3.077c0-0.732-0.608-1.194-1.544-1.194s-1.352 0.36-1.352 0.89c0 0.529 0.372 0.698 1.127 0.855l2.163 0.44c2.064 0.439 2.942 1.272 2.942 2.837 0 2.14-1.95 3.513-4.824 3.513s-4.756-1.373-4.902-3.48h3.257c0.102 0.767 0.71 1.217 1.702 1.217 0.991 0 1.443-0.327 1.443-0.867s-0.316-0.653-1.127-0.822l-1.95-0.417c-2.018-0.416-3.077-1.486-3.077-3.062 0.023-2.027 1.837-3.345 4.632-3.345v-0.022zM116.979 22.982h-3.258v-1.925h-0.067c-0.355 1.253-1.489 2.155-2.833 2.155-0.058 0-0.116-0.002-0.173-0.005l0.008 0c-0.061 0.004-0.132 0.006-0.203 0.006-1.55 0-2.871-0.98-3.377-2.354l-0.008-0.025c-0.174-0.483-0.241-0.999-0.199-1.511v-6.677h3.382v5.9c0 1.227 0.631 1.88 1.679 1.88 0.003 0 0.006 0 0.010 0 0.772 0 1.424-0.509 1.64-1.21l0.003-0.012c0.072-0.235 0.092-0.482 0.060-0.726v-5.832h3.382l-0.046 10.336zM118.613 12.646h3.269v1.993h0.067c0.367-1.271 1.521-2.184 2.887-2.184 0.019 0 0.039 0 0.058 0.001l-0.003-0c0.065-0.006 0.141-0.009 0.218-0.009 1.334 0 2.442 0.971 2.654 2.245l0.002 0.016h0.068c0.409-1.316 1.616-2.255 3.042-2.255 0.048 0 0.095 0.001 0.142 0.003l-0.007-0c0.032-0.001 0.070-0.002 0.108-0.002 1.412 0 2.615 0.89 3.080 2.14l0.007 0.023c0.156 0.433 0.219 0.893 0.186 1.352v7.037h-3.381v-6.137c0-1.126-0.508-1.644-1.454-1.644-0.004-0-0.009-0-0.015-0-0.815 0-1.475 0.66-1.475 1.475 0 0.068 0.005 0.134 0.013 0.2l-0.001-0.008v6.114h-3.211v-6.182c0-1.036-0.507-1.599-1.432-1.599-0.673 0.002-1.242 0.442-1.438 1.049l-0.003 0.011c-0.043 0.135-0.068 0.291-0.068 0.452 0 0.063 0.004 0.125 0.011 0.185l-0.001-0.007v6.090h-3.381l0.056-10.358zM29.847 9.966c-0.615-1.386-1.371-2.581-2.273-3.647l0.018 0.022c-2.686-3.269-6.663-5.392-11.141-5.584l-0.031-0.001c-0.19-0.008-0.412-0.013-0.636-0.013-4.301 0-8.186 1.779-10.96 4.641l-0.004 0.004c-2.652 2.738-4.286 6.474-4.286 10.593 0 0.404 0.016 0.804 0.047 1.2l-0.003-0.052c0.349 4.486 2.594 8.386 5.926 10.94l0.036 0.027c1.039 0.813 2.229 1.506 3.508 2.025l0.099 0.035c1.689 0.711 3.653 1.125 5.714 1.126h0c4.211-0.009 8.021-1.72 10.78-4.48l0-0c2.758-2.759 4.465-6.568 4.469-10.776v-0.001c0-0.007 0-0.015 0-0.023 0-2.183-0.465-4.258-1.3-6.131l0.038 0.096zM15.849 3.852c1.76 0 3.498 0.384 5.094 1.126-0.39 0.168-0.798 0.285-1.217 0.35-2.831 0.421-5.042 2.63-5.463 5.424l-0.004 0.036c-0.185 1.592-1.454 2.836-3.041 2.983l-0.013 0.001c-2.831 0.422-5.042 2.63-5.462 5.425l-0.004 0.036c-0.072 0.766-0.398 1.444-0.891 1.961l0.001-0.001c-0.739-1.523-1.17-3.312-1.17-5.203 0-2.415 0.705-4.665 1.919-6.557l-0.029 0.048c2.193-3.419 5.974-5.652 10.276-5.652 0.005 0 0.010 0 0.014 0h-0.001l-0.010 0.022zM6.528 23.906c0.135-0.124 0.27-0.237 0.406-0.372 0.972-0.942 1.634-2.199 1.822-3.605l0.003-0.032c0.073-0.777 0.42-1.504 0.981-2.049 0.523-0.543 1.234-0.9 2.028-0.967l0.012-0.001c2.831-0.422 5.042-2.63 5.462-5.425l0.004-0.036c0.049-0.814 0.398-1.58 0.98-2.15 0.534-0.532 1.253-0.878 2.053-0.934l0.010-0.001c1.32-0.186 2.48-0.765 3.384-1.613l-0.003 0.003c1.063 0.88 1.963 1.94 2.66 3.13-0.044 0.059-0.092 0.11-0.145 0.156l-0.001 0.001c-0.522 0.548-1.232 0.913-2.027 0.99l-0.013 0.001c-2.835 0.415-5.049 2.627-5.462 5.426l-0.004 0.035c-0.168 1.599-1.431 2.857-3.018 3.017l-0.014 0.001c-2.84 0.419-5.060 2.626-5.495 5.424l-0.005 0.036c-0.060 0.551-0.25 1.080-0.553 1.544-1.185-0.711-2.197-1.567-3.051-2.563l-0.014-0.016zM15.848 28.252c-0.003 0-0.007 0-0.011 0-1.2 0-2.359-0.173-3.455-0.495l0.086 0.022c0.376-0.7 0.62-1.463 0.72-2.252 0.168-1.596 1.425-2.851 3.007-3.016l0.015-0.001c2.836-0.417 5.052-2.627 5.474-5.425l0.004-0.036c0.167-1.596 1.424-2.852 3.005-3.017l0.015-0.001c1.094-0.146 2.073-0.546 2.905-1.139l-0.020 0.013c0.256 0.933 0.404 2.003 0.404 3.109 0 2.803-0.948 5.386-2.54 7.443l0.021-0.028c-2.242 2.9-5.717 4.753-9.625 4.767h-0.002v0.056z"></path>
</symbol>
<symbol id="icon-Logo4" viewBox="0 0 153 32">
<path d="M49.372 25.492c-0.056 0.003-0.121 0.005-0.187 0.005-0.741 0-1.427-0.234-1.988-0.633l0.011 0.007c-0.499-0.372-0.818-0.961-0.818-1.624 0-0.026 0-0.051 0.001-0.077l-0 0.004v-12.006c-0.002-0.013-0.003-0.028-0.003-0.043 0-0.147 0.094-0.271 0.225-0.317l0.002-0.001c0.032-0.011 0.069-0.018 0.108-0.018 0.015 0 0.030 0.001 0.045 0.003l-0.002-0h2.177c0.247 0 0.363 0.13 0.363 0.375v11.074c0 0.492 0.22 0.738 0.674 0.738 0.193 0.008 0.385-0.014 0.57-0.065 0.26 0 0.402 0.078 0.415 0.31l0.195 1.62c0.004 0.019 0.006 0.042 0.006 0.065 0 0.179-0.14 0.326-0.316 0.336l-0.001 0c-0.477 0.158-0.976 0.24-1.478 0.246zM61.621 24.107c-1.048 0.87-2.406 1.398-3.888 1.398s-2.84-0.528-3.898-1.406l0.010 0.008c-0.928-0.936-1.501-2.224-1.501-3.646s0.573-2.71 1.501-3.646l-0 0c1.049-0.865 2.407-1.39 3.888-1.39s2.839 0.525 3.898 1.398l-0.011-0.008c0.906 0.943 1.464 2.226 1.464 3.639s-0.558 2.697-1.466 3.641l0.002-0.002v0.013zM55.893 22.397c0.488 0.443 1.139 0.714 1.853 0.714s1.365-0.271 1.855-0.716l-0.002 0.002c0.443-0.506 0.713-1.174 0.713-1.904s-0.27-1.398-0.715-1.907l0.003 0.003c-0.488-0.443-1.139-0.714-1.853-0.714s-1.365 0.271-1.855 0.716l0.002-0.002c-0.443 0.506-0.713 1.174-0.713 1.904s0.27 1.398 0.715 1.907l-0.003-0.003zM75.075 15.753c0.246 0 0.363 0.13 0.363 0.375v9.286c0.002 0.045 0.003 0.099 0.003 0.152 0 1.265-0.556 2.399-1.437 3.173l-0.005 0.004c-0.944 0.808-2.18 1.3-3.531 1.3-0.085 0-0.169-0.002-0.253-0.006l0.012 0c-0.064 0.002-0.138 0.004-0.214 0.004-1.226 0-2.367-0.364-3.322-0.989l0.023 0.014c-0.882-0.585-1.506-1.501-1.695-2.567l-0.003-0.023c0-0.26 0-0.376 0.35-0.376h2.178c0.193 0.007 0.356 0.127 0.426 0.295l0.001 0.003c0.141 0.393 0.423 0.72 0.79 0.92 0.45 0.23 0.948 0.346 1.453 0.336 0.037 0.002 0.081 0.003 0.126 0.003 0.596 0 1.139-0.228 1.547-0.601l-0.002 0.002c0.379-0.395 0.612-0.931 0.612-1.523 0-0.034-0.001-0.068-0.002-0.101l0 0.005v-0.816c-0.78 0.573-1.729 0.87-2.696 0.842-0.055 0.002-0.119 0.003-0.183 0.003-1.36 0-2.594-0.54-3.499-1.417l0.001 0.001c-0.901-0.931-1.456-2.2-1.456-3.6s0.555-2.669 1.457-3.601l-0.001 0.001c0.908-0.869 2.142-1.403 3.501-1.403 0.063 0 0.126 0.001 0.189 0.003l-0.009-0c0.996-0.025 1.97 0.29 2.761 0.895v-0.208c-0.002-0.012-0.002-0.026-0.002-0.040 0-0.186 0.15-0.336 0.336-0.336 0.010 0 0.021 0 0.031 0.001l-0.001-0 2.152-0.013zM70.046 23.161c0.021 0.001 0.046 0.001 0.071 0.001 0.677 0 1.285-0.295 1.703-0.763l0.002-0.002c0.415-0.531 0.665-1.208 0.665-1.943s-0.25-1.412-0.67-1.95l0.005 0.007c-0.417-0.462-1.017-0.751-1.686-0.751-0.027 0-0.054 0-0.081 0.001l0.004-0c-0.022-0.001-0.048-0.001-0.074-0.001-0.684 0-1.299 0.294-1.726 0.762l-0.002 0.002c-0.436 0.484-0.702 1.127-0.702 1.833 0 0.039 0.001 0.077 0.002 0.115l-0-0.005c-0.001 0.028-0.002 0.060-0.002 0.093 0 0.705 0.261 1.349 0.691 1.841l-0.003-0.003c0.431 0.471 1.048 0.765 1.734 0.765 0.024 0 0.048-0 0.072-0.001l-0.004 0zM86.62 24.106c-1.049 0.865-2.407 1.39-3.888 1.39s-2.839-0.525-3.898-1.398l0.010 0.008c-0.907-0.945-1.465-2.23-1.465-3.646s0.558-2.701 1.467-3.648l-0.002 0.002c1.050-0.863 2.408-1.386 3.888-1.386s2.838 0.523 3.899 1.395l-0.011-0.009c0.906 0.943 1.464 2.226 1.464 3.639s-0.558 2.697-1.466 3.641l0.002-0.002v0.013zM80.879 22.396c0.464 0.442 1.094 0.714 1.787 0.714 0.028 0 0.055-0 0.083-0.001l-0.004 0c0.020 0.001 0.043 0.001 0.067 0.001 0.693 0 1.323-0.272 1.788-0.715l-0.001 0.001c0.435-0.509 0.7-1.175 0.7-1.904s-0.265-1.394-0.703-1.908l0.003 0.004c-0.464-0.442-1.094-0.714-1.787-0.714-0.023 0-0.047 0-0.070 0.001l0.003-0c-0.023-0.001-0.050-0.001-0.078-0.001-0.694 0-1.324 0.272-1.789 0.715l0.001-0.001c-0.435 0.509-0.7 1.175-0.7 1.904s0.265 1.394 0.703 1.908l-0.003-0.004zM92.764 13.551c-0.329 0.289-0.763 0.465-1.237 0.465s-0.909-0.176-1.24-0.467l0.002 0.002c-0.303-0.286-0.492-0.691-0.492-1.14s0.189-0.854 0.491-1.139l0.001-0.001c0.332-0.281 0.765-0.453 1.237-0.453s0.906 0.171 1.24 0.455l-0.003-0.002c0.303 0.286 0.492 0.691 0.492 1.14s-0.189 0.854-0.492 1.139l-0.001 0.001zM93.037 25.492c-0.052 0.003-0.112 0.004-0.173 0.004-0.746 0-1.437-0.234-2.004-0.633l0.011 0.007c-0.492-0.377-0.805-0.965-0.805-1.626 0-0.025 0-0.050 0.001-0.074l-0 0.004v-7.044c-0.002-0.012-0.002-0.026-0.002-0.040 0-0.187 0.151-0.338 0.338-0.338 0.014 0 0.028 0.001 0.042 0.003l-0.002-0h2.178c0.246 0 0.363 0.13 0.363 0.376v6.113c0 0.492 0.22 0.738 0.66 0.738 0.197 0.007 0.394-0.015 0.584-0.065 0.259 0 0.402 0.078 0.415 0.31l0.194 1.62c0.004 0.019 0.006 0.042 0.006 0.065 0 0.179-0.14 0.326-0.316 0.336l-0.001 0c-0.444 0.151-0.956 0.241-1.487 0.247l-0.003 0zM102.849 15.442c0.059-0.002 0.129-0.004 0.199-0.004 1.361 0 2.597 0.534 3.51 1.405l-0.002-0.002c0.884 0.945 1.426 2.219 1.426 3.62s-0.543 2.675-1.429 3.623l0.003-0.003c-0.904 0.876-2.138 1.415-3.498 1.415-0.074 0-0.147-0.002-0.219-0.005l0.010 0c-0.029 0.001-0.064 0.001-0.099 0.001-0.98 0-1.886-0.316-2.622-0.852l0.013 0.009v4.676c0 0.246-0.13 0.363-0.376 0.363h-2.177c-0.017 0.003-0.036 0.005-0.056 0.005-0.139 0-0.257-0.091-0.298-0.217l-0.001-0.002c-0.009-0.027-0.014-0.059-0.014-0.091 0-0.021 0.002-0.041 0.006-0.061l-0 0.002v-10.62c0.004-0.029 0.007-0.063 0.007-0.097 0-0.372-0.301-0.673-0.673-0.673-0.035 0-0.069 0.003-0.103 0.008l0.004-0h-0.428c-0.285 0-0.427-0.104-0.427-0.311v-1.529c-0.001-0.009-0.001-0.019-0.001-0.029 0-0.188 0.125-0.346 0.296-0.397l0.003-0.001c0.395-0.148 0.852-0.234 1.329-0.234 0.025 0 0.050 0 0.075 0.001l-0.004-0c0.063-0.006 0.136-0.009 0.21-0.009 0.925 0 1.728 0.524 2.129 1.291l0.006 0.013c0.792-0.8 1.891-1.296 3.106-1.296 0.033 0 0.067 0 0.1 0.001l-0.005-0zM100.828 22.397c0.45 0.471 1.083 0.763 1.784 0.763 0.001 0 0.003 0 0.004 0h-0c0 0 0.001 0 0.001 0 0.702 0 1.336-0.292 1.787-0.762l0.001-0.001c0.444-0.493 0.715-1.148 0.715-1.867 0-0.040-0.001-0.081-0.003-0.121l0 0.006c0.002-0.038 0.003-0.082 0.003-0.126 0-0.715-0.272-1.366-0.718-1.857l0.002 0.002c-0.452-0.471-1.086-0.763-1.788-0.763s-1.337 0.292-1.788 0.762l-0.001 0.001c-0.428 0.497-0.689 1.149-0.689 1.862 0 0.042 0.001 0.083 0.003 0.125l-0-0.006c-0.026 0.723 0.219 1.43 0.687 1.982zM114.098 25.492c-0.076 0.003-0.166 0.005-0.256 0.005-1.13 0-2.19-0.3-3.105-0.824l0.031 0.016c-0.411-0.25-0.75-0.577-1.007-0.963l-0.007-0.012c-0.248-0.375-0.421-0.82-0.487-1.301l-0.002-0.016c0-0.26 0.091-0.389 0.376-0.389h1.905c0.189 0.007 0.35 0.121 0.426 0.282l0.001 0.003c0.273 0.7 0.985 1.050 2.126 1.050 0.398 0.017 0.794-0.063 1.154-0.234 0.247-0.115 0.42-0.353 0.441-0.632l0-0.003c0-0.336-0.208-0.57-0.623-0.725-0.44-0.152-0.954-0.267-1.486-0.322l-0.030-0.003c-0.696-0.080-1.313-0.193-1.915-0.344l0.1 0.021c-0.602-0.139-1.119-0.445-1.515-0.866l-0.001-0.002c-0.387-0.474-0.621-1.085-0.621-1.751 0-0.133 0.009-0.264 0.027-0.392l-0.002 0.015c0.114-0.783 0.539-1.449 1.143-1.88l0.009-0.006c0.812-0.524 1.804-0.836 2.869-0.836 0.094 0 0.187 0.002 0.28 0.007l-0.013-0.001c0.058-0.002 0.127-0.003 0.195-0.003 1.054 0 2.042 0.285 2.891 0.782l-0.027-0.015c0.744 0.427 1.274 1.157 1.424 2.017l0.002 0.017c0 0.259-0.118 0.388-0.351 0.388h-1.918c-0.007 0-0.014 0.001-0.022 0.001-0.161 0-0.301-0.094-0.366-0.231l-0.001-0.002c-0.131-0.308-0.369-0.55-0.666-0.683l-0.008-0.003c-0.307-0.164-0.672-0.261-1.060-0.261-0.019 0-0.039 0-0.058 0.001l0.003-0c-0.38-0.020-0.759 0.056-1.101 0.22-0.242 0.095-0.411 0.325-0.414 0.596v0c0.016 0.369 0.272 0.674 0.615 0.764l0.006 0.001c0.445 0.173 0.965 0.309 1.505 0.384l0.037 0.004c0.607 0.080 1.208 0.192 1.802 0.337 0.603 0.139 1.12 0.445 1.516 0.866l0.001 0.002c0.396 0.433 0.638 1.012 0.638 1.648 0 0.044-0.001 0.089-0.004 0.132l0-0.006c0 0.019 0.001 0.041 0.001 0.063 0 0.918-0.477 1.724-1.196 2.185l-0.010 0.006c-0.865 0.562-1.922 0.896-3.058 0.896-0.069 0-0.137-0.001-0.205-0.004l0.010 0zM132.257 24.845c0.003 0.016 0.004 0.035 0.004 0.055 0 0.079-0.026 0.151-0.070 0.209l0.001-0.001c-0.054 0.074-0.137 0.126-0.231 0.138l-0.002 0c-0.436 0.147-0.938 0.236-1.459 0.246l-0.005 0c-0.089 0.010-0.192 0.015-0.297 0.015-0.934 0-1.765-0.445-2.291-1.134l-0.005-0.007c-0.816 0.704-1.886 1.133-3.057 1.133-0.087 0-0.173-0.002-0.259-0.007l0.012 0.001c-0.056 0.003-0.121 0.004-0.186 0.004-1.113 0-2.12-0.452-2.848-1.182l-0-0c-0.717-0.76-1.158-1.787-1.158-2.917 0-0.072 0.002-0.144 0.005-0.215l-0 0.010v-5.062c0-0.247 0.116-0.376 0.363-0.376h2.178c0.245 0 0.362 0.13 0.362 0.376v4.675c-0.001 0.027-0.002 0.059-0.002 0.091 0 0.576 0.212 1.102 0.562 1.504l-0.002-0.003c0.356 0.376 0.858 0.61 1.415 0.61 0.026 0 0.052-0.001 0.078-0.002l-0.004 0c0.028 0.001 0.060 0.002 0.093 0.002 0.565 0 1.079-0.217 1.464-0.573l-0.001 0.001c0.363-0.371 0.586-0.88 0.586-1.44 0-0.035-0.001-0.071-0.003-0.106l0 0.005v-4.766c0-0.247 0.116-0.376 0.362-0.376h2.204c0.246 0 0.362 0.13 0.362 0.376v6.1c0 0.505 0.221 0.75 0.649 0.75 0.2 0.009 0.402-0.013 0.596-0.064 0.027-0.008 0.058-0.012 0.089-0.012 0.182 0 0.33 0.143 0.339 0.322l0 0.001 0.155 1.619zM152.851 24.845c0.006 0.023 0.009 0.049 0.009 0.076 0 0.174-0.135 0.315-0.306 0.326l-0.001 0c-0.444 0.149-0.956 0.239-1.488 0.246l-0.004 0c-0.053 0.003-0.115 0.005-0.177 0.005-0.744 0-1.434-0.235-1.999-0.634l0.011 0.007c-0.527-0.368-0.867-0.972-0.867-1.655 0-0.015 0-0.030 0-0.044l-0 0.002v-3.043c0.001-0.031 0.002-0.068 0.002-0.104 0-0.57-0.207-1.091-0.551-1.492l0.003 0.003c-0.338-0.376-0.825-0.611-1.368-0.611-0.029 0-0.059 0.001-0.088 0.002l0.004-0c-0.018-0.001-0.040-0.001-0.062-0.001-0.493 0-0.935 0.221-1.231 0.569l-0.002 0.002c-0.309 0.388-0.495 0.884-0.495 1.425 0 0.036 0.001 0.072 0.002 0.108l-0-0.005v4.78c0 0.245-0.117 0.375-0.363 0.375h-2.191c-0.012 0.002-0.026 0.002-0.040 0.002-0.093 0-0.178-0.038-0.239-0.098l0 0c-0.061-0.061-0.1-0.145-0.1-0.239 0-0.015 0.001-0.029 0.003-0.043l-0 0.002v-4.675c0.002-0.035 0.003-0.077 0.003-0.119 0-0.558-0.191-1.072-0.512-1.479l0.004 0.005c-0.311-0.373-0.776-0.609-1.296-0.609h-0c-0.022-0.001-0.048-0.001-0.074-0.001-0.53 0-1.008 0.219-1.35 0.571l-0 0c-0.371 0.42-0.562 0.969-0.532 1.528v4.78c0.002 0.013 0.003 0.027 0.003 0.042 0 0.186-0.15 0.336-0.336 0.336-0.015 0-0.030-0.001-0.044-0.003l0.002 0h-2.112c-0.247 0-0.364-0.13-0.364-0.376v-6.1c0.004-0.029 0.007-0.063 0.007-0.097 0-0.186-0.075-0.355-0.197-0.477l0 0c-0.122-0.122-0.29-0.197-0.476-0.197-0.035 0-0.069 0.003-0.102 0.008l0.004-0h-0.428c-0.285 0-0.428-0.104-0.428-0.31v-1.529c-0.001-0.008-0.001-0.018-0.001-0.028 0-0.188 0.125-0.347 0.297-0.398l0.003-0.001c0.395-0.149 0.852-0.235 1.329-0.235 0.025 0 0.049 0 0.074 0.001l-0.004-0c0.062-0.006 0.134-0.009 0.206-0.009 0.891 0 1.67 0.477 2.096 1.19l0.006 0.011c0.782-0.744 1.842-1.201 3.009-1.201 0.1 0 0.198 0.003 0.296 0.010l-0.013-0.001c0.054-0.003 0.118-0.004 0.182-0.004 1.163 0 2.202 0.534 2.883 1.371l0.005 0.007c0.785-0.85 1.904-1.38 3.148-1.38 0.087 0 0.174 0.003 0.26 0.008l-0.012-0.001c0.057-0.003 0.124-0.004 0.191-0.004 1.123 0 2.14 0.452 2.88 1.184l-0-0c0.718 0.757 1.159 1.782 1.159 2.91 0 0.074-0.002 0.148-0.006 0.221l0-0.010v2.5c0 0.492 0.22 0.738 0.635 0.738 0.201 0.010 0.402-0.012 0.596-0.065 0.268 0 0.41 0.104 0.428 0.311l0.117 1.62zM0.873 14.070c1.007-3.954 3.235-7.286 6.253-9.659l0.038-0.029c2.981-2.346 6.789-3.762 10.928-3.762s7.947 1.416 10.966 3.791l-0.038-0.029c3.055 2.402 5.283 5.734 6.263 9.565l0.027 0.123h-1.554c-0.056-0.001-0.122-0.001-0.187-0.001-2.68 0-5.163 0.839-7.203 2.268l0.040-0.027c-0.124 0.090-0.253 0.173-0.388 0.246h-0.181c-0.151-0.083-0.279-0.165-0.401-0.253l0.011 0.007c-2.064-1.404-4.612-2.242-7.355-2.242s-5.291 0.838-7.401 2.271l0.046-0.029c-0.124 0.090-0.254 0.173-0.389 0.246h-0.181c-0.151-0.083-0.278-0.165-0.4-0.253l0.011 0.007c-1.999-1.403-4.483-2.241-7.163-2.241-0.066 0-0.131 0.001-0.196 0.002l0.010-0h-1.555zM30.955 22.19c0.733-0.575 1.668-0.922 2.684-0.922 0.041 0 0.081 0.001 0.122 0.002l-0.006-0h2.086v-4.157h-2.086c-0.030-0-0.065-0.001-0.1-0.001-1.828 0-3.517 0.593-4.887 1.597l0.023-0.016c-0.773 0.575-1.746 0.92-2.8 0.92s-2.027-0.345-2.813-0.929l0.013 0.009c-1.405-0.988-3.151-1.579-5.035-1.579s-3.63 0.591-5.063 1.598l0.028-0.019c-0.773 0.575-1.746 0.92-2.8 0.92s-2.027-0.345-2.812-0.929l0.013 0.009c-1.346-0.988-3.036-1.582-4.865-1.582-0.058 0-0.115 0.001-0.173 0.002l0.009-0h-2.151v4.158h2.086c0.034-0.001 0.075-0.002 0.116-0.002 1.016 0 1.951 0.347 2.694 0.929l-0.010-0.007c1.402 0.989 3.147 1.58 5.029 1.58s3.627-0.592 5.057-1.599l-0.028 0.019c0.799-0.62 1.788-0.945 2.8-0.92 0.037-0.001 0.080-0.002 0.123-0.002 1.013 0 1.946 0.347 2.685 0.929l-0.009-0.007c1.405 0.988 3.151 1.579 5.035 1.579s3.63-0.591 5.063-1.598l-0.028 0.019zM30.955 29.624c0.733-0.575 1.668-0.922 2.684-0.922 0.041 0 0.081 0.001 0.122 0.002l-0.006-0h2.086v-4.157h-2.086c-0.030-0-0.065-0.001-0.1-0.001-1.828 0-3.517 0.593-4.887 1.597l0.023-0.016c-0.773 0.575-1.746 0.92-2.8 0.92s-2.027-0.345-2.813-0.929l0.013 0.009c-1.405-0.988-3.151-1.579-5.035-1.579s-3.63 0.591-5.063 1.598l0.028-0.019c-0.773 0.575-1.746 0.92-2.8 0.92s-2.027-0.345-2.812-0.929l0.013 0.009c-1.346-0.988-3.036-1.582-4.865-1.582-0.058 0-0.115 0.001-0.173 0.002l0.009-0h-2.151v4.158h2.086c0.034-0.001 0.075-0.002 0.116-0.002 1.016 0 1.951 0.347 2.694 0.929l-0.010-0.007c1.402 0.989 3.147 1.581 5.029 1.581s3.627-0.592 5.057-1.599l-0.028 0.019c0.799-0.62 1.788-0.945 2.8-0.92 0.037-0.001 0.080-0.002 0.123-0.002 1.013 0 1.946 0.347 2.685 0.929l-0.009-0.007c1.405 0.988 3.151 1.579 5.035 1.579s3.63-0.591 5.063-1.598l-0.028 0.019z"></path>
</symbol>
<symbol id="icon-Logo5" viewBox="0 0 136 32">
<path d="M39 9.9h3.42v13.867h-3.42v-13.867zM43.783 18.551c0-3.435 2.13-5.493 5.327-5.493s5.326 2.058 5.326 5.493-2.056 5.515-5.326 5.515c-3.27 0-5.327-2.005-5.327-5.515zM51.049 18.551c0-1.888-0.735-2.997-1.907-2.997s-1.897 1.066-1.897 2.997c0 1.93 0.725 2.987 1.897 2.987s1.928-1.056 1.928-2.976l-0.021-0.010zM55.799 24.482h3.303c0.276 0.641 0.902 1.081 1.63 1.081 0.079 0 0.156-0.005 0.233-0.015l-0.009 0.001c1.31 0 1.992-0.704 1.992-1.75v-1.92h0.010c-0.537 1.118-1.66 1.875-2.96 1.875-0.083 0-0.165-0.003-0.246-0.009l0.011 0.001c-2.504 0-4.166-1.91-4.166-5.195s1.588-5.333 4.262-5.333c0.053-0.003 0.114-0.005 0.176-0.005 1.355 0 2.517 0.825 3.012 1.999l0.008 0.021h-0.096v-1.931h3.388v10.39c0 2.506-2.216 4.075-5.476 4.075-2.962-0.011-4.858-1.366-5.050-3.275l-0.021-0.010zM62.959 18.552c0-1.676-0.767-2.732-1.982-2.732s-1.96 1.067-1.96 2.731 0.735 2.646 1.96 2.646c1.226 0 1.982-0.907 1.982-2.646zM67.699 18.552c0-3.436 2.131-5.495 5.327-5.495s5.327 2.060 5.327 5.494c0 3.435-2.067 5.515-5.327 5.515s-5.305-2.005-5.305-5.515h-0.022zM74.965 18.552c0-1.889-0.746-2.998-1.907-2.998s-1.896 1.066-1.896 2.997c0 1.93 0.724 2.987 1.896 2.987s1.928-1.056 1.928-2.976l-0.021-0.010zM79.737 10.775c-0.001-0.022-0.002-0.048-0.002-0.074 0-0.705 0.416-1.313 1.017-1.591l0.011-0.005c0.212-0.098 0.46-0.156 0.721-0.156 0.835 0 1.532 0.586 1.705 1.368l0.002 0.012c0.025 0.111 0.039 0.238 0.039 0.369 0 0.965-0.781 1.748-1.745 1.751h-0c-0.013 0-0.029 0.001-0.045 0.001-0.923 0-1.672-0.744-1.681-1.665v-0.001l-0.022-0.010zM79.737 13.292h3.463v10.518h-3.41l-0.053-10.518zM95.653 18.552c0 3.423-1.534 5.407-4.144 5.407-0.060 0.004-0.131 0.006-0.202 0.006-1.331 0-2.476-0.796-2.986-1.938l-0.008-0.021h-0.064v5.185h-3.42v-13.868h3.399v1.878h0.064c0.509-1.202 1.678-2.031 3.041-2.031 0.054 0 0.108 0.001 0.161 0.004l-0.008-0c2.685-0.022 4.23 1.952 4.23 5.387l-0.064-0.010zM92.17 18.552c0-1.665-0.778-2.742-1.982-2.742s-1.96 1.066-1.97 2.741c-0.011 1.675 0.766 2.73 1.97 2.73s2.046-0.991 2.046-2.72l-0.064-0.010zM101.491 13.047c2.866 0 4.645 1.355 4.666 3.53h-3.121c0-0.757-0.628-1.226-1.566-1.226s-1.385 0.363-1.385 0.907 0.394 0.714 1.183 0.874l2.194 0.448c2.131 0.449 2.983 1.302 2.983 2.891 0 2.134-1.971 3.584-4.9 3.584-2.93 0-4.837-1.408-4.975-3.552h3.313c0.095 0.779 0.713 1.238 1.715 1.238 1.001 0 1.47-0.32 1.47-0.886s-0.319-0.661-1.14-0.832l-1.982-0.416c-2.056-0.437-3.132-1.514-3.132-3.125 0.065-2.091 1.854-3.425 4.741-3.425l-0.064-0.010zM117.897 23.799h-3.313v-1.973h-0.064c-0.367 1.275-1.522 2.192-2.892 2.192-0.058 0-0.116-0.002-0.173-0.005l0.008 0c-0.036 0.001-0.078 0.002-0.121 0.002-1.583 0-2.931-1.008-3.436-2.417l-0.008-0.025c-0.132-0.362-0.208-0.781-0.208-1.217 0-0.106 0.004-0.211 0.013-0.314l-0.001 0.014v-6.752h3.42v6.016c0 1.238 0.65 1.91 1.715 1.91 0.788-0.005 1.451-0.532 1.663-1.253l0.003-0.012c0.068-0.24 0.085-0.493 0.049-0.74v-5.921h3.409l-0.064 10.496zM119.548 13.292h3.324v2.027h0.074c0.373-1.291 1.544-2.22 2.933-2.22 0.022 0 0.043 0 0.065 0.001l-0.003-0c0.071-0.007 0.153-0.010 0.237-0.010 1.334 0 2.444 0.958 2.68 2.223l0.003 0.017h0.149c0.423-1.306 1.629-2.233 3.051-2.233 0.051 0 0.102 0.001 0.152 0.004l-0.007-0c0.038-0.002 0.082-0.002 0.127-0.002 0.939 0 1.787 0.39 2.391 1.017l0.001 0.001c0.577 0.598 0.932 1.412 0.932 2.31 0 0.087-0.003 0.174-0.010 0.259l0.001-0.011v7.136h-3.442v-6.262c0-1.066-0.501-1.664-1.47-1.664-0.008-0-0.017-0-0.027-0-0.669 0-1.235 0.442-1.422 1.050l-0.003 0.011c-0.040 0.13-0.064 0.279-0.064 0.433 0 0.071 0.005 0.142 0.015 0.211l-0.001-0.008v6.23h-3.26v-6.294c0-1.066-0.522-1.632-1.459-1.632-0.004-0-0.009-0-0.014-0-0.681 0-1.257 0.447-1.451 1.064l-0.003 0.011c-0.043 0.135-0.068 0.291-0.068 0.452 0 0.067 0.004 0.134 0.013 0.199l-0.001-0.008v6.208h-3.419l-0.022-10.518zM32.236 10.806c0-2.123-0.64-4.196-1.837-5.949-1.919-2.788-5.092-4.593-8.687-4.593-3.067 0-5.828 1.314-7.75 3.409l-0.007 0.008h-13.295v28.097h28.071v-13.131c2.155-1.935 3.504-4.73 3.505-7.84v-0zM26.835 10.806c0 0.003 0 0.006 0 0.009 0 2.127-1.29 3.952-3.129 4.737l-0.034 0.013c-0.583 0.249-1.261 0.395-1.972 0.395-1.416 0-2.699-0.574-3.627-1.502v0c-0.93-0.931-1.505-2.216-1.505-3.636 0-2.837 2.296-5.137 5.132-5.144h0.001c1.36 0 2.665 0.54 3.627 1.502 0.929 0.929 1.505 2.211 1.508 3.627v0.001zM23.33 26.37h-17.269v-17.281h5.263c-0.097 0.513-0.155 1.107-0.16 1.712l-0 0.005c0.003 2.912 1.183 5.547 3.090 7.457l-0-0c1.905 1.908 4.537 3.089 7.445 3.093h0.001c0.546-0.003 1.091-0.050 1.63-0.139v5.153z"></path>
</symbol>
<symbol id="icon-Facebook" viewBox="0 0 32 32">
<path d="M32 16c-0.001-8.835-7.164-15.997-16-15.997s-16 7.163-16 16c0 7.954 5.804 14.552 13.408 15.791l0.092 0.012v-11.18h-4.062v-4.626h4.062v-3.526c0-4.010 2.388-6.224 6.044-6.224 1.75 0 3.58 0.312 3.58 0.312v3.938h-2.016c-1.988 0-2.608 1.234-2.608 2.5v3h4.438l-0.71 4.626h-3.728v11.18c7.696-1.253 13.5-7.852 13.5-15.806v-0z"></path>
</symbol>
<symbol id="icon-Twitter" viewBox="0 0 30 32">
<path d="M9.474 29.001c11.364 0 17.581-10.005 17.581-18.679 0-0.282-0.008-0.568-0.019-0.849 1.218-0.946 2.242-2.071 3.050-3.346l0.032-0.053c-1.031 0.501-2.228 0.864-3.488 1.025l-0.058 0.006c1.292-0.846 2.253-2.104 2.704-3.585l0.012-0.046c-1.125 0.722-2.437 1.274-3.842 1.58l-0.079 0.014c-0.889-1.012-2.099-1.724-3.469-1.976l-0.037-0.006c-0.3-0.054-0.646-0.086-0.999-0.086-1.074 0-2.080 0.288-2.946 0.791l0.028-0.015c-1.213 0.708-2.155 1.767-2.7 3.036l-0.016 0.042c-0.35 0.802-0.554 1.737-0.554 2.72 0 0.524 0.058 1.034 0.168 1.524l-0.009-0.046c-2.605-0.145-5.012-0.864-7.138-2.031l0.087 0.044c-2.26-1.24-4.153-2.873-5.65-4.825l-0.031-0.042c-0.525 0.953-0.835 2.089-0.835 3.297 0 0.526 0.059 1.038 0.169 1.53l-0.009-0.046c0.354 1.648 1.284 3.036 2.566 3.972l0.019 0.013c-1.037-0.039-1.996-0.34-2.824-0.837l0.027 0.015v0.081c0 1.515 0.491 2.985 1.397 4.16 0.866 1.133 2.099 1.948 3.519 2.27l0.041 0.008c-0.907 0.264-1.862 0.301-2.786 0.113 0.395 1.303 1.161 2.443 2.197 3.262 1.035 0.817 2.283 1.272 3.573 1.299-2.058 1.745-4.743 2.807-7.675 2.812h-0.001c-0.52-0-1.033-0.034-1.535-0.101l0.059 0.006c2.649 1.84 5.932 2.942 9.472 2.948h0.002z"></path>
</symbol>
<symbol id="icon-Instagram" viewBox="0 0 32 32">
<path d="M16 2.88c4.274 0 4.78 0.020 6.462 0.096 1.562 0.068 2.406 0.33 2.97 0.548 0.744 0.288 1.28 0.64 1.836 1.194 0.564 0.564 0.908 1.094 1.194 1.84 0.22 0.56 0.48 1.41 0.55 2.968 0.076 1.686 0.094 2.192 0.094 6.46 0 4.276-0.020 4.782-0.094 6.464-0.068 1.562-0.33 2.406-0.55 2.968-0.286 0.744-0.638 1.282-1.194 1.84-0.502 0.517-1.116 0.923-1.802 1.181l-0.034 0.011c-0.564 0.22-1.414 0.48-2.97 0.55-1.688 0.074-2.194 0.094-6.462 0.094-4.276 0-4.78-0.020-6.462-0.094-1.564-0.068-2.406-0.332-2.97-0.55-0.72-0.27-1.333-0.677-1.835-1.193l-0.001-0.001c-0.518-0.503-0.925-1.117-1.183-1.804l-0.011-0.034c-0.22-0.56-0.48-1.412-0.55-2.968-0.076-1.688-0.094-2.194-0.094-6.462 0-4.276 0.020-4.78 0.094-6.462 0.068-1.564 0.33-2.408 0.55-2.97 0.288-0.744 0.638-1.28 1.194-1.838 0.502-0.518 1.116-0.925 1.802-1.183l0.034-0.011c0.564-0.218 1.414-0.48 2.97-0.548 1.68-0.076 2.186-0.096 6.462-0.096zM16 0c-4.344 0-4.888 0.020-6.594 0.094-1.7 0.074-2.868 0.35-3.88 0.744-1.112 0.424-2.060 1.053-2.839 1.849l-0.001 0.001c-0.793 0.778-1.421 1.722-1.828 2.776l-0.018 0.054c-0.396 1.022-0.672 2.182-0.746 3.882-0.076 1.712-0.094 2.256-0.094 6.6s0.020 4.888 0.094 6.594c0.074 1.7 0.35 2.868 0.744 3.88 0.412 1.058 0.956 1.952 1.85 2.84 0.888 0.886 1.78 1.436 2.83 1.842 1.020 0.394 2.182 0.67 3.882 0.744 1.706 0.076 2.25 0.094 6.594 0.094s4.888-0.020 6.594-0.094c1.7-0.074 2.868-0.35 3.88-0.744 1.108-0.423 2.053-1.051 2.831-1.843l0.001-0.001c0.793-0.778 1.42-1.722 1.826-2.776l0.018-0.053c0.394-1.020 0.668-2.182 0.744-3.882 0.074-1.706 0.094-2.25 0.094-6.594s-0.020-4.888-0.094-6.594c-0.076-1.7-0.35-2.868-0.744-3.88-0.408-1.116-1.033-2.067-1.83-2.842l-0.002-0.002c-0.778-0.793-1.722-1.42-2.776-1.826l-0.053-0.018c-1.022-0.394-2.182-0.668-3.882-0.744-1.712-0.080-2.256-0.1-6.6-0.1z"></path>
<path d="M16 7.78c-4.54 0-8.22 3.68-8.22 8.22s3.68 8.22 8.22 8.22v0c4.54 0 8.22-3.68 8.22-8.22s-3.68-8.22-8.22-8.22v0zM16 21.332c-2.945 0-5.332-2.387-5.332-5.332s2.387-5.332 5.332-5.332v0c2.945 0 5.332 2.387 5.332 5.332s-2.387 5.332-5.332 5.332v0zM26.462 7.456c0.001 0.018 0.001 0.040 0.001 0.062 0 1.060-0.86 1.92-1.92 1.92s-1.92-0.86-1.92-1.92c0-0.022 0-0.043 0.001-0.065l-0 0.003c0-1.060 0.86-1.92 1.92-1.92s1.92 0.86 1.92 1.92v0z"></path>
</symbol>
<symbol id="icon-LinkedIn" viewBox="0 0 32 32">
<path d="M29.632 0h-27.272c-1.304 0-2.36 1.032-2.36 2.306v27.38c0.015 1.281 1.057 2.314 2.34 2.314 0.008 0 0.016-0 0.023-0h27.269c1.306 0 2.368-1.038 2.368-2.306v-27.388c0-1.274-1.062-2.306-2.368-2.306zM9.492 27.268h-4.746v-15.274h4.75v15.274zM7.12 9.912c-0.023 0.001-0.051 0.001-0.078 0.001-1.52 0-2.752-1.232-2.752-2.752s1.232-2.752 2.752-2.752c0.025 0 0.049 0 0.074 0.001l-0.004-0c1.489 0.039 2.682 1.256 2.682 2.751 0 1.492-1.188 2.707-2.67 2.751l-0.004 0zM27.27 27.268h-4.744v-7.424c0-1.77-0.030-4.050-2.468-4.050-2.468 0-2.844 1.932-2.844 3.924v7.55h-4.74v-15.274h4.55v2.086h0.064c0.63-1.2 2.18-2.47 4.486-2.47 4.808 0 5.694 3.164 5.694 7.276v8.38z"></path>
</symbol>
</defs>
<symbol id="icon-back-button" viewBox="0 0 32 32">
<path fill="#fff" style="fill: var(--color3, #fff)" d="M0 16c0-8.837 7.163-16 16-16s16 7.163 16 16c0 8.837-7.163 16-16 16s-16-7.163-16-16z"></path>
<path fill="#232536" style="fill: var(--color1, #232536)" d="M22.857 16.667c0.368 0 0.667-0.298 0.667-0.667s-0.299-0.667-0.667-0.667v1.333zM8.966 15.529c-0.26 0.26-0.26 0.682 0 0.943l4.243 4.243c0.26 0.26 0.682 0.26 0.943 0s0.26-0.682 0-0.943l-3.771-3.771 3.771-3.771c0.26-0.26 0.26-0.682 0-0.943s-0.682-0.26-0.943 0l-4.243 4.243zM22.857 15.333h-13.419v1.333h13.419v-1.333z"></path>
</symbol>
<symbol id="icon-next-button" viewBox="0 0 32 32">
<path fill="#232536" style="fill: var(--color1, #232536)" d="M32 16c0 8.837-7.163 16-16 16s-16-7.163-16-16c0-8.837 7.163-16 16-16s16 7.163 16 16z"></path>
<path fill="#f4f4f4" style="fill: var(--color2, #f4f4f4)" d="M9.29 16c-0.285 0-0.516 0.231-0.516 0.516s0.231 0.516 0.516 0.516v-1.032zM23.075 16.881c0.202-0.202 0.202-0.528 0-0.73l-3.285-3.285c-0.202-0.202-0.528-0.202-0.73 0s-0.202 0.528 0 0.73l2.92 2.92-2.92 2.92c-0.202 0.202-0.202 0.528 0 0.73s0.528 0.202 0.73 0l3.285-3.285zM9.29 17.032h13.419v-1.032h-13.419v1.032z"></path>
</symbol>
</svg>
